<svg width="40" height="39" viewBox="0 0 40 39" fill="none" xmlns="http://www.w3.org/2000/svg">
<path d="M17.55 17.3833C17.3833 16.8667 17.2333 16.3667 17.0667 15.85C16.9 15.3333 16.75 14.85 16.6167 14.3667C16.4833 13.9 16.3667 13.4667 16.25 13.0667H16.2167C16.0667 13.7833 15.8833 14.5 15.65 15.2167C15.4 16.0167 15.15 16.85 14.8833 17.6833C14.65 18.5333 14.4 19.3167 14.15 20.0167H18.3833C18.2833 19.665 18.15 19.25 18 18.815C17.85 18.3667 17.7 17.8833 17.55 17.3833ZM32.9167 0H7.08333C3.16667 0 0 3.16667 0 7.08333V31.9167C0 35.8333 3.16667 39 7.08333 39H32.9167C36.8333 39 40 35.8333 40 31.9167V7.08333C40 3.16667 36.8333 0 32.9167 0ZM24.5 27.55H21.015C20.9 27.5667 20.7833 27.4833 20.75 27.3667L19.3833 23.4H13.1833L11.9167 27.3167C11.8833 27.4667 11.75 27.5667 11.6 27.5517H8.46667C8.28333 27.5517 8.23333 27.45 8.28333 27.2517L13.65 11.8C13.7 11.6333 13.75 11.45 13.8167 11.25C13.8833 10.9 13.9167 10.5333 13.9167 10.1667C13.9 10.0833 13.9667 10 14.05 9.98333H18.3667C18.5 9.98333 18.5667 10.0333 18.5833 10.1167L24.6667 27.2833C24.7167 27.465 24.6667 27.55 24.5 27.55ZM30.1667 27.3C30.1667 27.4833 30.1017 27.5667 29.9517 27.5667H26.6833C26.5167 27.5667 26.4333 27.465 26.4333 27.3V14.4667C26.4333 14.3 26.5017 14.2333 26.6517 14.2333H29.9517C30.1017 14.2333 30.1667 14.3167 30.1667 14.4667V27.3ZM29.8183 12.25C29.6215 12.4499 29.3842 12.6054 29.1223 12.706C28.8604 12.8066 28.58 12.85 28.3 12.8333C27.75 12.85 27.2167 12.6333 26.815 12.25C26.4332 11.8325 26.2298 11.2822 26.2483 10.7167C26.2317 10.15 26.4483 9.61667 26.8467 9.23333C27.25 8.85 27.7833 8.65 28.3333 8.65C28.985 8.65 29.4817 8.85 29.85 9.23333C30.2167 9.63333 30.4167 10.1667 30.4 10.7167C30.4167 11.2833 30.2167 11.8333 29.8183 12.25Z" fill="#4E1C00"/>
</svg>
