<svg width="27" height="40" viewBox="0 0 27 40" fill="none" xmlns="http://www.w3.org/2000/svg">
<path d="M6.71053 40C10.4147 40 13.4211 37.0133 13.4211 33.3333V26.6666H6.71053C3.00632 26.6666 0 29.6533 0 33.3333C0 37.0133 3.00632 40 6.71053 40Z" fill="#0ACF83"/>
<path d="M0 20C0 16.32 3.00632 13.3334 6.71053 13.3334H13.4211V26.6667H6.71053C3.00632 26.6667 0 23.68 0 20Z" fill="#A259FF"/>
<path d="M0 6.66667C0 2.98667 3.00632 0 6.71053 0H13.4211V13.3333H6.71053C3.00632 13.3333 0 10.3467 0 6.66667Z" fill="#F24E1E"/>
<path d="M13.4211 0H20.1316C23.8358 0 26.8421 2.98667 26.8421 6.66667C26.8421 10.3467 23.8358 13.3333 20.1316 13.3333H13.4211V0Z" fill="#FF7262"/>
<path d="M26.8421 20C26.8421 23.68 23.8358 26.6667 20.1316 26.6667C16.4274 26.6667 13.4211 23.68 13.4211 20C13.4211 16.32 16.4274 13.3334 20.1316 13.3334C23.8358 13.3334 26.8421 16.32 26.8421 20Z" fill="#1ABCFE"/>
</svg>
