<svg width="246" height="84" viewBox="0 0 246 84" fill="none" xmlns="http://www.w3.org/2000/svg">
<path d="M107.79 28.2219C107.015 26.4172 105.896 24.7819 104.497 23.4074C103.097 22.0289 101.447 20.9333 99.6354 20.1804C97.7572 19.3966 95.7427 18.9953 93.7088 19C90.8555 19 88.0716 19.785 85.6524 21.2677C85.0736 21.6224 84.5238 22.012 84.0029 22.4364C83.482 22.012 82.9321 21.6224 82.3534 21.2677C79.9341 19.785 77.1502 19 74.2969 19C72.2423 19 70.2513 19.3954 68.3703 20.1804C66.5529 20.9363 64.915 22.0236 63.5086 23.4074C62.108 24.7804 60.9891 26.4161 60.2154 28.2219C59.4109 30.0999 59 32.0943 59 34.1468C59 36.0831 59.3936 38.1007 60.1749 40.1532C60.8289 41.8685 61.7665 43.6478 62.9646 45.4444C64.8629 48.2877 67.4732 51.2531 70.7143 54.2592C76.0853 59.2423 81.4042 62.6845 81.6299 62.824L83.0016 63.7078C83.6093 64.0974 84.3906 64.0974 84.9983 63.7078L86.37 62.824C86.5958 62.6787 91.9089 59.2423 97.2856 54.2592C100.527 51.2531 103.137 48.2877 105.035 45.4444C106.233 43.6478 107.177 41.8685 107.825 40.1532C108.606 38.1007 109 36.0831 109 34.1468C109.006 32.0943 108.595 30.0999 107.79 28.2219Z" fill="#A5D8D8"/>
<path d="M136.375 67H143.469L148.031 39.1562L148.375 37L148.688 39.1562L153.312 67H160.406L166.406 21.5H159.406L156.25 49.4375L156.031 51.3438L155.719 49.4688L151.188 21.5H145.438L141.062 49.3438L140.75 51.2188L140.531 49.4375L137.406 21.5H130.438L136.375 67Z" fill="#1D1D1F"/>
<path d="M5.78125 21.5V27.7188H15.2812V60.8125H5.78125V67H32.5938V60.8125H22.875V27.7188H32.5938V21.5H5.78125Z" fill="#1D1D1F"/>
<path d="M199.406 46.5938V40.5312H180.594V27.7188H202.406V21.5H173.062V67H202.562V60.8125H180.594V46.5938H199.406Z" fill="#1D1D1F"/>
<path d="M211.594 67H227.344C229.594 67 231.677 66.7188 233.594 66.1562C235.531 65.5729 237.198 64.7188 238.594 63.5938C239.99 62.4896 241.083 61.1146 241.875 59.4688C242.667 57.8229 243.052 55.9167 243.031 53.75C243.031 52.5208 242.854 51.3542 242.5 50.25C242.167 49.125 241.667 48.1042 241 47.1875C240.354 46.3333 239.552 45.5729 238.594 44.9062C237.635 44.2188 236.479 43.6979 235.125 43.3438V43.2812C236.042 42.9062 236.844 42.4896 237.531 42.0312C238.24 41.5521 238.875 41 239.438 40.375C240.229 39.5208 240.833 38.5417 241.25 37.4375C241.688 36.3125 241.917 35.1042 241.938 33.8125C241.938 31.6875 241.531 29.8542 240.719 28.3125C239.927 26.75 238.823 25.4688 237.406 24.4688C235.99 23.4688 234.312 22.7292 232.375 22.25C230.438 21.75 228.365 21.5 226.156 21.5H211.594V67ZM219.156 46.4375H227.781C229.01 46.4583 230.104 46.6458 231.062 47C232.021 47.3333 232.833 47.8125 233.5 48.4375C234.167 49.0625 234.667 49.8229 235 50.7188C235.333 51.5938 235.5 52.6042 235.5 53.75C235.5 54.8333 235.292 55.8229 234.875 56.7188C234.479 57.5938 233.906 58.3333 233.156 58.9375C232.469 59.5208 231.635 59.9792 230.656 60.3125C229.677 60.6458 228.594 60.8125 227.406 60.8125H219.156V46.4375ZM219.156 40.7188V27.7188H226.25C227.542 27.7396 228.719 27.8958 229.781 28.1875C230.844 28.4583 231.729 28.9062 232.438 29.5312C233.062 30.0312 233.542 30.6771 233.875 31.4688C234.229 32.2396 234.406 33.1562 234.406 34.2188C234.406 35.2188 234.219 36.1042 233.844 36.875C233.469 37.6458 232.958 38.3021 232.312 38.8438C231.604 39.4479 230.729 39.9062 229.688 40.2188C228.667 40.5312 227.542 40.6979 226.312 40.7188H219.156Z" fill="#1D1D1F"/>
</svg>
