<svg width="40" height="39" viewBox="0 0 40 39" fill="none" xmlns="http://www.w3.org/2000/svg">
<path d="M16.4167 13.5333C15.8 13.2833 15.1333 13.1833 14.45 13.2C14.0167 13.2 13.6333 13.2 13.3167 13.2167C12.9833 13.2 12.75 13.2167 12.6333 13.2333V18.8333C12.8667 18.85 13.0833 18.8667 13.2833 18.8667H14.1667C14.8167 18.8667 15.4667 18.7667 16.0833 18.5667C16.6167 18.4167 17.0833 18.1 17.45 17.6833C17.8 17.2667 17.9667 16.7 17.9667 15.9667C17.9833 15.45 17.85 14.9333 17.5833 14.4833C17.3054 14.0506 16.8967 13.7178 16.4167 13.5333ZM32.9167 0H7.08333C3.16667 0 0 3.16667 0 7.08333V31.915C0 35.8317 3.16667 38.9983 7.08333 38.9983H32.9167C36.8333 38.9983 40 35.8317 40 31.915V7.08333C40 3.16667 36.8333 0 32.9167 0ZM20.5983 19.4167C19.9333 20.35 19 21.05 17.9167 21.45C16.7833 21.8667 15.5333 22.0167 14.1667 22.0167C13.7667 22.0167 13.5 22.0167 13.3333 22C13.1667 21.9833 12.9333 21.9833 12.6167 21.9833V27.3317C12.6333 27.4483 12.55 27.55 12.4333 27.5667H9.2C9.06667 27.5667 9 27.4983 9 27.3483V10.2C9 10.0833 9.05 10.0167 9.16667 10.0167C9.45 10.0167 9.71667 10.0167 10.1 10C10.5 9.98333 10.9167 9.98333 11.3667 9.96667C11.8167 9.95 12.3 9.95 12.8167 9.93333C13.3333 9.91667 13.8333 9.91667 14.3333 9.91667C15.7 9.91667 16.8333 10.0833 17.7667 10.4333C18.6 10.7167 19.3667 11.1833 20 11.8C20.5333 12.3333 20.95 12.9833 21.2167 13.7C21.465 14.4 21.5983 15.1167 21.5983 15.8667C21.6 17.3 21.2667 18.4833 20.5983 19.4167ZM32.4167 25.9C31.95 26.5667 31.2983 27.0817 30.55 27.385C29.7333 27.7333 28.7333 27.915 27.5317 27.915C26.7667 27.915 26.015 27.85 25.2667 27.7C24.6833 27.5983 24.1 27.4167 23.5667 27.1667C23.45 27.1017 23.365 26.985 23.3817 26.8517V23.9517C23.3817 23.9033 23.4 23.835 23.45 23.8017C23.4983 23.7683 23.55 23.785 23.6 23.8183C24.25 24.2017 24.9333 24.47 25.6667 24.635C26.2983 24.8017 26.965 24.885 27.6333 24.885C28.2667 24.885 28.7167 24.8 29.0167 24.65C29.2833 24.5333 29.4667 24.25 29.4667 23.95C29.4667 23.715 29.3333 23.5 29.0667 23.2833C28.8 23.0683 28.2517 22.8183 27.435 22.4983C26.585 22.1983 25.8033 21.7983 25.0683 21.3C24.5468 20.9265 24.1138 20.4428 23.8 19.8833C23.5351 19.356 23.404 18.7716 23.4183 18.1817C23.4183 17.465 23.6183 16.7817 23.9867 16.165C24.4033 15.4983 25.0183 14.965 25.735 14.6317C26.5167 14.2333 27.5 14.05 28.6833 14.05C29.3667 14.05 30.0667 14.1 30.75 14.2C31.25 14.2667 31.7333 14.4 32.1833 14.5833C32.2483 14.6 32.3167 14.6667 32.35 14.7333C32.3667 14.8 32.3833 14.8667 32.3833 14.9333V17.65C32.3833 17.7167 32.35 17.7833 32.3 17.8167C32.15 17.85 32.0667 17.85 32 17.8167C31.5 17.55 30.9667 17.3667 30.4 17.25C29.7833 17.1167 29.1667 17.0333 28.5333 17.0333C28.2 17.0167 27.85 17.0667 27.5317 17.15C27.3167 17.2 27.1317 17.3167 27.015 17.4833C26.9317 17.6167 26.8817 17.7833 26.8817 17.9333C26.8817 18.0833 26.9483 18.2333 27.05 18.3667C27.2 18.55 27.3983 18.7 27.6167 18.8167C27.9983 19.0167 28.4 19.2 28.7983 19.3667C29.7 19.6667 30.5667 20.0833 31.3667 20.5833C31.9167 20.9317 32.3667 21.4 32.6817 21.9667C32.9483 22.4967 33.0817 23.0833 33.065 23.6817C33.0833 24.4667 32.85 25.2483 32.4167 25.9Z" fill="#002653"/>
</svg>
