<svg width="40" height="40" viewBox="0 0 40 40" fill="none" xmlns="http://www.w3.org/2000/svg">
<path d="M38.5858 4.23761L30.3494 0.248882C29.8843 0.0232917 29.3609 -0.0511532 28.8518 0.0358669C28.3427 0.122887 27.8732 0.367061 27.5082 0.734542L0.546338 25.4601C0.219211 25.7587 0.023394 26.1757 0.0019633 26.6195C-0.0194674 27.0633 0.135243 27.4975 0.432062 27.8266C0.467773 27.8654 0.503485 27.9027 0.542053 27.9372L2.74329 29.9488C3.03092 30.2122 3.40117 30.3658 3.78972 30.3832C4.17826 30.4005 4.56057 30.2804 4.87024 30.0437L37.346 5.27215C37.5912 5.08492 37.8836 4.97027 38.1902 4.94112C38.4968 4.91198 38.8053 4.96948 39.0811 5.10716C39.357 5.24485 39.5891 5.45724 39.7515 5.72044C39.9138 5.98365 39.9999 6.2872 40 6.59694V6.50067C40 6.0278 39.8672 5.56454 39.6171 5.1642C39.3669 4.76385 39.0094 4.44267 38.5858 4.23761Z" fill="#0065A9"/>
<path d="M38.5858 35.7624L30.3494 39.7526C29.8841 39.9775 29.3609 40.0516 28.852 39.9646C28.3431 39.8776 27.8735 39.6338 27.5082 39.2669L0.546338 14.5399C0.219211 14.2413 0.023394 13.8243 0.0019633 13.3805C-0.0194674 12.9367 0.135243 12.5025 0.432062 12.1734C0.467773 12.1346 0.503485 12.0973 0.542053 12.0628L2.74329 10.0512C3.03122 9.78672 3.40231 9.63237 3.79181 9.61504C4.18132 9.59771 4.56451 9.7185 4.87453 9.95633L37.346 34.7278C37.5912 34.9151 37.8836 35.0297 38.1902 35.0589C38.4968 35.088 38.8053 35.0305 39.0811 34.8928C39.357 34.7552 39.5891 34.5428 39.7515 34.2796C39.9138 34.0164 39.9999 33.7128 40 33.4031V33.5065C39.9985 33.9781 39.865 34.4398 39.6149 34.8387C39.3649 35.2376 39.0082 35.5577 38.5858 35.7624Z" fill="#007ACC"/>
<path d="M30.3493 39.7524C29.8841 39.9774 29.3608 40.0515 28.8519 39.9645C28.343 39.8775 27.8734 39.6337 27.5082 39.2668C27.7133 39.4704 27.9736 39.6086 28.2565 39.6641C28.5394 39.7196 28.8323 39.6898 29.0984 39.5786C29.3646 39.4674 29.5922 39.2796 29.7527 39.0388C29.9132 38.798 29.9995 38.515 30.0008 38.225V1.77471C30.001 1.48344 29.9153 1.19866 29.7545 0.956427C29.5937 0.714197 29.3651 0.525424 29.0975 0.414021C28.83 0.302618 28.5356 0.273597 28.2516 0.330635C27.9677 0.387673 27.7069 0.528203 27.5024 0.734423C27.8674 0.367076 28.3369 0.122887 28.8459 0.0356246C29.3549 -0.0516374 29.8783 0.0223404 30.3436 0.247327L38.5786 4.23031C39.0035 4.43434 39.3625 4.75508 39.614 5.15551C39.8654 5.55593 39.9992 6.01973 39.9999 6.49337V33.5064C40 33.9797 39.8672 34.4433 39.6167 34.844C39.3663 35.2446 39.0084 35.5659 38.5843 35.7709L30.3493 39.7524Z" fill="#1F9CF0"/>
</svg>
